<?xml version="1.0" encoding="UTF-8"?>
<svg version="1.1" xmlns="http://www.w3.org/2000/svg" width="1536" height="1024">
<path d="M0 0 C0.99 0.495 0.99 0.495 2 1 C1.01 1.495 1.01 1.495 0 2 C0 1.34 0 0.68 0 0 Z M142 6 C144 7 144 7 144 7 Z M0 8 C0.99 8.495 0.99 8.495 2 9 C1.01 9.495 1.01 9.495 0 10 C0 9.34 0 8.68 0 8 Z M97 8 C97.33 8.66 97.66 9.32 98 10 C97.34 9.67 96.68 9.34 96 9 C96.33 8.67 96.66 8.34 97 8 Z M0 16 C0.99 16.495 0.99 16.495 2 17 C1.01 17.495 1.01 17.495 0 18 C0 17.34 0 16.68 0 16 Z M185 20 C187 21 187 21 187 21 Z M142 22 C142.66 22 143.32 22 144 22 C143.67 22.66 143.34 23.32 143 24 C142.67 23.34 142.34 22.68 142 22 Z M-865 23 C-863 24 -863 24 -863 24 Z M142 30 C144 31 144 31 144 31 Z M0 32 C0.99 32.495 0.99 32.495 2 33 C1.01 33.495 1.01 33.495 0 34 C0 33.34 0 32.68 0 32 Z M97 32 C97.33 32.66 97.66 33.32 98 34 C97.34 33.67 96.68 33.34 96 33 C96.33 32.67 96.66 32.34 97 32 Z M47 33 C49 34 49 34 49 34 Z M142 38 C142.66 38 143.32 38 144 38 C143.67 38.66 143.34 39.32 143 40 C142.67 39.34 142.34 38.68 142 38 Z M94 40 C96 41 96 41 96 41 Z M97 40 C97.33 40.66 97.66 41.32 98 42 C97.34 41.67 96.68 41.34 96 41 C96.33 40.67 96.66 40.34 97 40 Z M142 46 C144 47 144 47 144 47 Z M96 48 C96.99 48.495 96.99 48.495 98 49 C97.01 49.495 97.01 49.495 96 50 C96 49.34 96 48.68 96 48 Z M142 54 C144 55 144 55 144 55 Z M0 56 C0.99 56.495 0.99 56.495 2 57 C1.01 57.495 1.01 57.495 0 58 C0 57.34 0 56.68 0 56 Z M47 57 C49 58 49 58 49 58 Z M96 57 C98 58 98 58 98 58 Z M142 62 C144 63 144 63 144 63 Z M0 64 C0.99 64.495 0.99 64.495 2 65 C1.01 65.495 1.01 65.495 0 66 C0 65.34 0 64.68 0 64 Z M142 78 C144 79 144 79 144 79 Z M0 80 C0.99 80.495 0.99 80.495 2 81 C1.01 81.495 1.01 81.495 0 82 C0 81.34 0 80.68 0 80 Z M95 80 C95.99 80.33 96.98 80.66 98 81 C97.01 81 96.02 81 95 81 C95 80.67 95 80.34 95 80 Z M47 96 C50 97 50 97 50 97 Z M142 110 C144 111 144 111 144 111 Z M0 112 C0.99 112.495 0.99 112.495 2 113 C1.01 113.495 1.01 113.495 0 114 C0 113.34 0 112.68 0 112 Z M142 134 C144 135 144 135 144 135 Z M142 142 C144 143 144 143 144 143 Z M0 144 C2 145 2 145 2 145 Z M94 152 C96 153 96 153 96 153 Z M142 158 C144 159 144 159 144 159 Z M0 160 C0.99 160.495 0.99 160.495 2 161 C1.01 161.495 1.01 161.495 0 162 C0 161.34 0 160.68 0 160 Z M142 174 C144 175 144 175 144 175 Z M142 182 C144 183 144 183 144 183 Z M142 190 C144 191 144 191 144 191 Z M142 206 C144 207 144 207 144 207 Z M0 208 C0.99 208.495 0.99 208.495 2 209 C1.01 209.495 1.01 209.495 0 210 C0 209.34 0 208.68 0 208 Z M97 208 C97.33 208.66 97.66 209.32 98 210 C97.34 209.67 96.68 209.34 96 209 C96.33 208.67 96.66 208.34 97 208 Z M142 214 C144 215 144 215 144 215 Z M120 220 C122 221 122 221 122 221 Z M142 230 C144 231 144 231 144 231 Z M142 238 C144 239 144 239 144 239 Z M142 246 C144 247 144 247 144 247 Z M142 254 C144 255 144 255 144 255 Z M94 256 C96 257 96 257 96 257 Z M142 270 C144 271 144 271 144 271 Z M142 278 C144 279 144 279 144 279 Z M-863 280 C-862.34 280 -861.68 280 -861 280 C-861.33 280.99 -861.66 281.98 -862 283 C-862.33 282.01 -862.66 281.02 -863 280 Z M0 280 C0.99 280.495 0.99 280.495 2 281 C1.01 281.495 1.01 281.495 0 282 C0 281.34 0 280.68 0 280 Z M94 280 C96 281 96 281 96 281 Z M96 281 C96.33 281.66 96.66 282.32 97 283 C96.34 282.67 95.68 282.34 95 282 C95.33 281.67 95.66 281.34 96 281 Z M142 286 C144 287 144 287 144 287 Z M94 288 C96 289 96 289 96 289 Z M142 294 C144 295 144 295 144 295 Z M47 296 C47.66 296.66 48.32 297.32 49 298 C48.34 298 47.68 298 47 298 C47 297.34 47 296.68 47 296 Z M94 296 C96 297 96 297 96 297 Z M-864 301 C-862 302 -862 302 -862 302 Z M142 302 C144 303 144 303 144 303 Z M0 304 C0.99 304.495 0.99 304.495 2 305 C1.01 305.495 1.01 305.495 0 306 C0 305.34 0 304.68 0 304 Z M142 310 C144 311 144 311 144 311 Z M142 318 C144 319 144 319 144 319 Z M0 328 C2 329 2 329 2 329 Z M142 334 C144 335 144 335 144 335 Z M142 342 C144 343 144 343 144 343 Z M96 345 C98 346 98 346 98 346 Z M142 350 C144 351 144 351 144 351 Z M-173.1875 355.1875 C-167.35605538 360.0192684 -167.35605538 360.0192684 -166.61434269 364.14540678 C-166.10647496 369.89729908 -165.86075286 375.58373642 -165.88647461 381.35704041 C-165.88625132 382.68651218 -165.88625132 382.68651218 -165.88602352 384.04284197 C-165.88671257 386.98423413 -165.89453057 389.92556218 -165.90234375 392.86694336 C-165.90426519 394.98894211 -165.90572792 397.11094131 -165.9067688 399.23294067 C-165.90992276 403.79390751 -165.91618187 408.35485568 -165.92483521 412.91581535 C-165.93843591 420.16389191 -165.94426995 427.4119624 -165.94897461 434.66004944 C-165.96099791 451.38687519 -165.98290405 468.11368519 -166.00520325 484.84049988 C-166.02550153 500.1127726 -166.04356872 515.38503943 -166.05341816 530.65732294 C-166.05753319 536.66382508 -166.0637363 542.67030866 -166.07516479 548.67680168 C-166.1472708 582.78966101 -166.1472708 582.78966101 -165.33058167 616.89012814 C-164.02981164 652.9018827 -164.02981164 652.9018827 -169 663 C-172.57643842 666.32691946 -176.10212356 667.77646677 -180.91015625 668.1640625 C-184.7352252 667.86377671 -188.01014223 666.37332391 -191 664 C-194.0280567 660.04670375 -194.45277544 656.78856746 -194.6875 651.875 C-194.75324219 650.65554688 -194.81898438 649.43609375 -194.88671875 648.1796875 C-194.96007149 646.12075184 -195 644.0602419 -195 642 C-195.01160156 640.91332031 -195.02320313 639.82664062 -195.03515625 638.70703125 C-195.08184642 632.05701647 -195.07450505 625.58134344 -194 619 C-194.66 618.67 -195.32 618.34 -196 618 C-195.814375 617.21625 -195.62875 616.4325 -195.4375 615.625 C-194.74037734 613.02910225 -194.74037734 613.02910225 -196 611 C-195.34 611 -194.68 611 -194 611 C-194.14063135 608.70800823 -194.28765943 606.41640814 -194.4375 604.125 C-194.51871094 602.84882812 -194.59992187 601.57265625 -194.68359375 600.2578125 C-194.79206027 597.11699848 -194.79206027 597.11699848 -196 595 C-195.34 595 -194.68 595 -194 595 C-194.165 594.071875 -194.33 593.14375 -194.5 592.1875 C-195 589 -195 589 -195 586 C-195.00847879 583.97304759 -195.01698189 581.94609528 -195.02565002 579.91914368 C-195.03899441 576.46294883 -195.04715649 573.00674848 -195.05493164 569.55053711 C-195.05995249 567.73412494 -195.06677046 565.91771679 -195.07543945 564.10131836 C-195.08765865 561.46987933 -195.09326138 558.83849361 -195.09765625 556.20703125 C-195.10281754 555.4046553 -195.10797882 554.60227936 -195.11329651 553.77558899 C-195.11378796 548.76208201 -194.71583659 543.96344039 -194 539 C-194.66 538.67 -195.32 538.34 -196 538 C-195.835 537.236875 -195.67 536.47375 -195.5 535.6875 C-194.90854604 532.96403764 -194.90854604 532.96403764 -195 530 C-195 519 -195 519 -194 516 C-194.66 515.67 -195.32 515.34 -196 515 C-195.34 515 -194.68 515 -194 515 C-194.16371094 514.18917969 -194.32742188 513.37835937 -194.49609375 512.54296875 C-195.08186686 508.42439348 -195.10906226 504.46370426 -195.0625 500.3125 C-195.05798828 499.55388672 -195.05347656 498.79527344 -195.04882812 498.01367188 C-195.03644322 496.00908677 -195.01854146 494.00453762 -195 492 C-195 491.01 -195 490.02 -195 489 C-194.98866349 487.47916377 -194.97689688 485.95833072 -194.96484375 484.4375 C-194.95554207 482.62500095 -194.94643486 480.81250089 -194.9375 479 C-194.92912109 478.08476562 -194.92074219 477.16953125 -194.91210938 476.2265625 C-194.90888672 475.34742188 -194.90566406 474.46828125 -194.90234375 473.5625 C-194.89710693 472.75941406 -194.89187012 471.95632813 -194.88647461 471.12890625 C-194.9157026 468.81078938 -194.9157026 468.81078938 -196 466 C-196.04165763 464.00043389 -196.04165763 461.99956611 -196 460 C-196 459.01 -196 458.02 -196 457 C-195.855625 456.071875 -195.71125 455.14375 -195.5625 454.1875 C-194.6506403 448.169226 -194.3956294 442.0691233 -194 436 C-194.66 436 -195.32 436 -196 436 C-195.83701416 434.77909668 -195.67402832 433.55819336 -195.50610352 432.30029297 C-194.83906669 426.26438552 -194.87505134 420.26157579 -194.90234375 414.1953125 C-194.9037587 412.99437958 -194.90517365 411.79344666 -194.90663147 410.55612183 C-194.91219548 406.74572176 -194.9247345 402.93538206 -194.9375 399.125 C-194.94252027 396.54166752 -194.94708225 393.95833412 -194.95117188 391.375 C-194.96097587 385.71272088 -194.97516504 380.05047252 -194.99327087 374.38821411 C-195.02573796 362.86541745 -195.02573796 362.86541745 -191.6875 358.6875 C-186.40211533 353.40211533 -180.15127821 352.24723809 -173.1875 355.1875 Z M142 358 C142.66 358 143.32 358 144 358 C143.67 358.66 143.34 359.32 143 360 C142.67 359.34 142.34 358.68 142 358 Z M142 382 C144 383 144 383 144 383 Z M142 390 C144 391 144 391 144 391 Z M-261 391 C-259.02 391.99 -259.02 391.99 -257 393 C-256.54546553 396.44948075 -256.80045309 397.72536371 -258.87890625 400.5859375 C-259.76449219 401.50632812 -260.65007812 402.42671875 -261.5625 403.375 C-262.04195068 403.87741211 -262.52140137 404.37982422 -263.01538086 404.89746094 C-264.66297836 406.61239752 -266.3308008 408.30609226 -268 410 C-268.64710938 410.66612305 -269.29421875 411.33224609 -269.9609375 412.01855469 C-271.98685432 414.10365778 -274.02223606 416.1789387 -276.0625 418.25 C-277.04488647 419.25232666 -277.04488647 419.25232666 -278.04711914 420.27490234 C-278.66192139 420.89059082 -279.27672363 421.5062793 -279.91015625 422.140625 C-280.45808838 422.69266602 -281.00602051 423.24470703 -281.57055664 423.81347656 C-283 425 -283 425 -285 425 C-285.24105469 425.5671875 -285.48210937 426.134375 -285.73046875 426.71875 C-289.1601612 432.88164351 -295.51213134 437.71260261 -301 442 C-301.495 442.99 -301.495 442.99 -302 444 C-302.66 444 -303.32 444 -304 444 C-304 444.66 -304 445.32 -304 446 C-305.57421875 447.55078125 -305.57421875 447.55078125 -307.6875 449.3125 C-310.9682745 452.06192496 -313.99445589 454.95096031 -317 458 C-318.1970675 459.19876523 -319.39505207 460.39661511 -320.59375 461.59375 C-321.23183594 462.23183594 -321.86992188 462.86992187 -322.52734375 463.52734375 C-338.68489583 479.68489583 -354.84244792 495.84244792 -371 512 C-367.37261252 516.31754542 -363.65980904 520.46787759 -359.671875 524.4609375 C-359.19679504 524.93697418 -358.72171509 525.41301086 -358.23223877 525.9034729 C-357.2419895 526.89439497 -356.2505074 527.88408654 -355.2578125 528.87255859 C-353.73578988 530.3891595 -352.21926388 531.91111323 -350.703125 533.43359375 C-349.73469599 534.40136298 -348.76595738 535.36882253 -347.796875 536.3359375 C-346.48734863 537.64377197 -346.48734863 537.64377197 -345.15136719 538.97802734 C-343.16855685 541.03516993 -343.16855685 541.03516993 -341 542 C-341 542.66 -341 543.32 -341 544 C-340.360625 544.268125 -339.72125 544.53625 -339.0625 544.8125 C-337 546 -337 546 -336 549 C-334.67592331 549.68486725 -333.34090759 550.34870203 -332 551 C-329.75 553 -329.75 553 -328 555 C-328 555.66 -328 556.32 -328 557 C-327.10219079 557.41066633 -327.10219079 557.41066633 -326.18624401 557.82962894 C-324.07392503 558.96042541 -322.7045293 560.04414011 -321.02009583 561.72593689 C-320.46070816 562.27968491 -319.9013205 562.83343292 -319.32498169 563.40396118 C-318.7237851 564.00920624 -318.1225885 564.61445129 -317.50317383 565.23803711 C-316.86046036 565.87724594 -316.21774689 566.51645477 -315.55555725 567.17503357 C-313.43432534 569.28746894 -311.32048563 571.40712918 -309.20703125 573.52734375 C-307.7357002 574.99732772 -306.26407235 576.46701468 -304.79216003 577.93641663 C-301.70981876 581.01580958 -298.63112366 584.0987907 -295.55493164 587.18432617 C-291.60711628 591.14354581 -287.6503779 595.09370681 -283.69087696 599.04123592 C-280.65130642 602.07358859 -277.61650432 605.11067741 -274.5831356 608.14923286 C-273.12571823 609.60798641 -271.66680819 611.0652502 -270.20639992 612.52100945 C-268.16894168 614.55340267 -266.13798153 616.59207241 -264.10864258 618.63256836 C-263.50137329 619.23578918 -262.894104 619.83901001 -262.26843262 620.46051025 C-258.11426623 624.65720131 -258.11426623 624.65720131 -257 628 C-260.27160078 631.27160078 -272.33194872 629.89591967 -277 630 C-287.13860821 629.94335973 -292.24029784 627.00001026 -299.27796936 619.92297363 C-299.90940353 619.27807983 -300.54083771 618.63318604 -301.19140625 617.96875 C-301.85913559 617.29581909 -302.52686493 616.62288818 -303.21482849 615.92956543 C-305.33556726 613.7911116 -307.44946416 611.64606333 -309.5625 609.5 C-311.67996645 607.35482118 -313.79891495 605.21116068 -315.92088318 603.07043457 C-317.23707129 601.74209018 -318.55057773 600.41108156 -319.86097717 599.07702637 C-322.4734765 596.43613293 -325.01594987 593.98744876 -327.94116211 591.68554688 C-328.62057861 591.12931641 -329.29999512 590.57308594 -330 590 C-330 589.34 -330 588.68 -330 588 C-330.82553879 587.66292778 -330.82553879 587.66292778 -331.66775513 587.31904602 C-334.67976912 585.61554348 -336.91242024 583.34252996 -339.31591797 580.89526367 C-339.83355713 580.37631027 -340.35119629 579.85735687 -340.88452148 579.32267761 C-342.59172346 577.60899447 -344.29183585 575.88844673 -345.9921875 574.16796875 C-347.18227858 572.97160295 -348.37288916 571.77575371 -349.56399536 570.58039856 C-352.69935589 567.43173936 -355.82910692 564.27756796 -358.95727539 561.12176514 C-363.955508 556.08042237 -368.96038819 551.0457029 -373.96866226 546.01433754 C-375.71143338 544.26140224 -377.45071469 542.50505966 -379.18966675 540.74833679 C-380.26808945 539.6630792 -381.34662567 538.5779344 -382.42529297 537.49291992 C-382.90237701 537.00909851 -383.37946106 536.5252771 -383.8710022 536.02679443 C-386.26266411 533.62719757 -388.70780396 531.39763399 -391.34841919 529.2816925 C-392.22344086 528.52873398 -393.09846252 527.77577545 -394 527 C-394 526.34 -394 525.68 -394 525 C-394.86625 524.6596875 -394.86625 524.6596875 -395.75 524.3125 C-400.08814225 521.78191702 -401.71607747 518.9621819 -403.125 514.1875 C-403.54110108 508.84836423 -400.30151127 505.87297697 -397 502 C-394.32959901 499.08275801 -391.56162403 496.28072706 -388.75 493.5 C-388.03070312 492.77296875 -387.31140625 492.0459375 -386.5703125 491.296875 C-385.88195312 490.61109375 -385.19359375 489.9253125 -384.484375 489.21875 C-383.86272461 488.59935547 -383.24107422 487.97996094 -382.60058594 487.34179688 C-381 486 -381 486 -379 486 C-378.34 484.68 -377.68 483.36 -377 482 C-376.34 482 -375.68 482 -375 482 C-374.74555115 481.4079222 -374.49110229 480.8158444 -374.22894287 480.20582485 C-372.86817126 477.7633811 -371.48759954 476.47758766 -369.33691406 474.70680237 C-365.22009337 471.21894401 -361.4027471 467.52497798 -357.609375 463.69116211 C-356.91880005 462.9975206 -356.2282251 462.30387909 -355.51672363 461.58921814 C-354.03157279 460.09696565 -352.54755401 458.60358577 -351.0645752 457.10917473 C-348.71217237 454.73923411 -346.35611682 452.37298071 -343.99902344 450.00770569 C-337.30265144 443.28700661 -330.6119828 436.56065102 -323.92578125 429.82983398 C-319.82301501 425.70020242 -315.71532284 421.57552322 -311.60461426 417.45379829 C-310.04629042 415.88929289 -308.48986307 414.32289599 -306.9354248 412.75452995 C-304.75843015 410.55819537 -302.57522944 408.36820534 -300.390625 406.17944336 C-299.75870239 405.53875916 -299.12677979 404.89807495 -298.47570801 404.23797607 C-291.75984857 397.53658758 -286.27297897 392.08920266 -276.4375 392.0625 C-275.72142578 392.03349609 -275.00535156 392.00449219 -274.26757812 391.97460938 C-269.73033883 391.83836834 -265.47197295 392.24193888 -261 393 C-261 392.34 -261 391.68 -261 391 Z M-73 394 C-70.82581805 395.73204421 -69.00289459 397.54045069 -67.1796875 399.63671875 C-65.32084215 401.65213351 -63.46256583 403.35955663 -61.38327026 405.13430786 C-56.96128586 408.98094689 -52.81617809 413.05676884 -48.68798828 417.21435547 C-47.89999344 418.00381058 -47.1119986 418.79326569 -46.30012512 419.60664368 C-44.60376851 421.3067823 -42.90856725 423.00807436 -41.21442032 424.71041489 C-38.53562641 427.40203973 -35.85366174 430.09046897 -33.17086792 432.77810669 C-27.48609418 438.47426534 -21.80525666 444.17433778 -16.125 449.875 C-9.5208381 456.50282366 -2.91499789 463.12895608 3.69501114 469.75094986 C6.34167583 472.40411319 8.9853211 475.06026059 11.62887573 477.71652222 C13.24055539 479.33183199 14.85237426 480.94700288 16.46435547 482.56201172 C17.20200638 483.30482895 17.93965729 484.04764618 18.69966125 484.81297302 C19.70876305 485.82218056 19.70876305 485.82218056 20.73825073 486.85177612 C21.61588231 487.73273862 21.61588231 487.73273862 22.51124382 488.63149834 C23.97292319 490.10148484 23.97292319 490.10148484 26 491 C26 491.66 26 492.32 26 493 C26.66 493 27.32 493 28 493 C29.515625 494.50390625 29.515625 494.50390625 31.25 496.5625 C33.94971176 499.76864952 33.94971176 499.76864952 36.7578125 502.87890625 C39.21996377 505.53731596 40.84138363 507.57702301 42.125 511 C41.84236257 517.78329828 37.15418837 522.17651592 32.5859375 526.71484375 C31 528 31 528 29 528 C28.73832031 528.59941406 28.47664062 529.19882812 28.20703125 529.81640625 C26.92779812 532.13061764 25.73749558 533.29659445 23.6875 534.9375 C20.60958164 537.47375571 17.78621341 540.14046519 15 543 C13.33491601 544.66827075 11.66780116 546.33444824 10 548 C8.52139729 549.47842853 7.04289237 550.95695488 5.56445312 552.43554688 C-28.56445312 586.56445312 -28.56445312 586.56445312 -30.92541504 588.92456055 C-32.16738824 590.1670453 -33.4084935 591.41039995 -34.64782715 592.65551758 C-36.85880248 594.87633018 -39.08812363 596.99768754 -41.5 599 C-44.48917139 601.52979656 -47.26537501 604.1934112 -50 607 C-50.71800781 607.71671875 -51.43601562 608.4334375 -52.17578125 609.171875 C-54.33822284 611.33730752 -56.48695075 613.51368017 -58.62890625 615.69921875 C-59.94001276 617.02873598 -61.25121247 618.35816131 -62.5625 619.6875 C-63.5515332 620.70166992 -63.5515332 620.70166992 -64.56054688 621.73632812 C-65.20185547 622.38408203 -65.84316406 623.03183594 -66.50390625 623.69921875 C-67.36737671 624.57839966 -67.36737671 624.57839966 -68.24829102 625.4753418 C-77.22329586 633.28703591 -93.07173221 629.73610094 -104 629 C-103.54964275 624.65149427 -100.69858362 622.29668544 -97.73339844 619.39282227 C-97.18533035 618.8443161 -96.63726227 618.29580994 -96.07258606 617.73068237 C-94.25853597 615.91872233 -92.43408457 614.11762616 -90.609375 612.31640625 C-89.34417397 611.05680414 -88.07963642 609.79653529 -86.81573486 608.53562927 C-83.48364925 605.21500004 -80.14266267 601.90346814 -76.79974365 598.59375 C-73.41192542 595.23649809 -70.03246019 591.87086229 -66.65234375 588.50585938 C-61.18330979 583.06318325 -55.70925628 577.62561885 -50.22828674 572.19496155 C-44.69606839 566.76370843 -44.69606839 566.76370843 -39.3125 561.1875 C-38 560 -38 560 -36 560 C-36 559.34 -36 558.68 -36 558 C-33.81897904 555.60087695 -31.5100302 553.44782824 -29.07421875 551.30908203 C-20.63944184 543.89223265 -12.78941529 535.90008525 -4.875 527.9375 C-3.42731841 526.48479174 -1.97940348 525.03231597 -0.53125 523.58007812 C2.98186066 520.05605814 6.49180531 516.52891363 10 513 C9.05268337 511.7199443 8.10300588 510.44163556 7.15234375 509.1640625 C6.62374756 508.4520166 6.09515137 507.7399707 5.55053711 507.00634766 C2.59637683 503.18375449 -0.87765079 500.08900126 -4.5625 497 C-7.43926514 494.57976498 -9.69932791 491.9823527 -12 489 C-12.66 488.67 -13.32 488.34 -14 488 C-14 487.34 -14 486.68 -14 486 C-14.66 486 -15.32 486 -16 486 C-20.76744186 481.69767442 -20.76744186 481.69767442 -22 478 C-22.66 478 -23.32 478 -24 478 C-25.72995853 476.37488744 -27.3625318 474.71619263 -29 473 C-30.51452512 471.4313847 -32.03583199 469.86929962 -33.5625 468.3125 C-34.30628906 467.54550781 -35.05007813 466.77851563 -35.81640625 465.98828125 C-37.82721145 464.1573334 -39.51424078 463.0540521 -42 462 C-42 461.34 -42 460.68 -42 460 C-43.35404143 458.45993734 -44.78113656 456.98393651 -46.23510742 455.5378418 C-47.15994431 454.61315598 -48.08478119 453.68847015 -49.03764343 452.73576355 C-50.06014999 451.72347903 -51.08276107 450.71130007 -52.10546875 449.69921875 C-53.147678 448.66074091 -54.18944561 447.62181966 -55.23078918 446.58247375 C-57.98146555 443.83944886 -60.73808645 441.10247356 -63.49597168 438.36669922 C-66.28536597 435.59763608 -69.06923308 432.8230294 -71.85351562 430.04882812 C-76.76938474 425.15211688 -81.69013106 420.26035379 -86.61442566 415.37211609 C-88.30204206 413.6940204 -89.98683651 412.01308452 -91.66963196 410.33015442 C-93.16326267 408.83666063 -94.66224785 407.34849131 -96.16796875 405.8671875 C-96.83441406 405.20976562 -97.50085938 404.55234375 -98.1875 403.875 C-99.19876953 402.88113281 -99.19876953 402.88113281 -100.23046875 401.8671875 C-103.22025538 398.71240161 -104 397.4553246 -104 393 C-95.92100769 390.30700256 -80.85004732 390.44111661 -73 394 Z M-293 396 C-291 397 -291 397 -291 397 Z M142 406 C144 407 144 407 144 407 Z M142 422 C144 423 144 423 144 423 Z M142 438 C144 439 144 439 144 439 Z M142 446 C144 447 144 447 144 447 Z M1 460 C3 461 3 461 3 461 Z M142 462 C144 463 144 463 144 463 Z M142 470 C144 471 144 471 144 471 Z M142 494 C144 495 144 495 144 495 Z M-864 503 C-862 504 -862 504 -862 504 Z M142 510 C144 511 144 511 144 511 Z M0 520 C2 521 2 521 2 521 Z M142 526 C144 527 144 527 144 527 Z M96 529 C98 530 98 530 98 530 Z M142 542 C142.66 542 143.32 542 144 542 C143.67 542.66 143.34 543.32 143 544 C142.67 543.34 142.34 542.68 142 542 Z M142 550 C144 551 144 551 144 551 Z M-370 553 C-368 554 -368 554 -368 554 Z M142 558 C144 559 144 559 144 559 Z M-356 565 C-355.01 565.495 -355.01 565.495 -354 566 C-354.33 566.66 -354.66 567.32 -355 568 C-355.33 567.01 -355.66 566.02 -356 565 Z M142 566 C144 567 144 567 144 567 Z M142 582 C144 583 144 583 144 583 Z M142 590 C144 591 144 591 144 591 Z M142 598 C144 599 144 599 144 599 Z M-323 600 C-321 601 -321 601 -321 601 Z M142 606 C144 607 144 607 144 607 Z M142 614 C144 615 144 615 144 615 Z M-305 616 C-303.02 616.99 -303.02 616.99 -301 618 C-301.99 618.495 -301.99 618.495 -303 619 C-303.66 618.67 -304.32 618.34 -305 618 C-305 617.34 -305 616.68 -305 616 Z M142 622 C142.66 622 143.32 622 144 622 C143.67 622.66 143.34 623.32 143 624 C142.67 623.34 142.34 622.68 142 622 Z M47 625 C49 626 49 626 49 626 Z M-291 630 C-288 631 -288 631 -288 631 Z M142 630 C144 631 144 631 144 631 Z M142 638 C144 639 144 639 144 639 Z M142 654 C144 655 144 655 144 655 Z M94 656 C96 657 96 657 96 657 Z M142 662 C144 663 144 663 144 663 Z M0 664 C2 665 2 665 2 665 Z M142 670 C142.66 670 143.32 670 144 670 C143.67 670.66 143.34 671.32 143 672 C142.67 671.34 142.34 670.68 142 670 Z M142 686 C144 687 144 687 144 687 Z M143 689 C145 690 145 690 145 690 Z M142 694 C144 695 144 695 144 695 Z M48 710 C48.99 710 49.98 710 51 710 C50.67 710.66 50.34 711.32 50 712 C49.34 711.34 48.68 710.68 48 710 Z M142 710 C144 711 144 711 144 711 Z M0 712 C0.99 712.495 0.99 712.495 2 713 C1.01 713.495 1.01 713.495 0 714 C0 713.34 0 712.68 0 712 Z M143 725 C143.66 725.33 144.32 725.66 145 726 C144.01 726 143.02 726 142 726 C142.33 725.67 142.66 725.34 143 725 Z M47 729 C49 730 49 730 49 730 Z M141 734 C144 735 144 735 144 735 Z M142 742 C144 743 144 743 144 743 Z M-363 750 C-361 751 -361 751 -361 751 Z M142 750 C144 751 144 751 144 751 Z M94 752 C96 753 96 753 96 753 Z M0 760 C0.99 760.495 0.99 760.495 2 761 C1.01 761.495 1.01 761.495 0 762 C0 761.34 0 760.68 0 760 Z M94 760 C96 761 96 761 96 761 Z M-864 765 C-862 766 -862 766 -862 766 Z M142 766 C144 767 144 767 144 767 Z M47 768 C47.66 768.66 48.32 769.32 49 770 C48.34 770 47.68 770 47 770 C47 769.34 47 768.68 47 768 Z M0 776 C0.99 776.495 0.99 776.495 2 777 C1.01 777.495 1.01 777.495 0 778 C0 777.34 0 776.68 0 776 Z M50 781 C50.33 781.99 50.66 782.98 51 784 C50.01 783.67 49.02 783.34 48 783 C48.66 782.34 49.32 781.68 50 781 Z M141 782 C144 783 144 783 144 783 Z M94 784 C96 785 96 785 96 785 Z M97 784 C97 787 97 787 97 787 Z M47 785 C49 786 49 786 49 786 Z M142 790 C145 791 145 791 145 791 Z M0 792 C0.99 792.495 0.99 792.495 2 793 C1.01 793.495 1.01 793.495 0 794 C0 793.34 0 792.68 0 792 Z M97 792 C97.33 792.66 97.66 793.32 98 794 C97.34 793.67 96.68 793.34 96 793 C96.33 792.67 96.66 792.34 97 792 Z M142 798 C142.66 798 143.32 798 144 798 C143.67 798.66 143.34 799.32 143 800 C142.67 799.34 142.34 798.68 142 798 Z M0 800 C0.99 800.495 0.99 800.495 2 801 C1.01 801.495 1.01 801.495 0 802 C0 801.34 0 800.68 0 800 Z M142 806 C144 807 144 807 144 807 Z M-864 813 C-862 814 -862 814 -862 814 Z M50 814 C50.33 814.99 50.66 815.98 51 817 C50.34 816.67 49.68 816.34 49 816 C49.33 815.34 49.66 814.68 50 814 Z M0 816 C0.99 816.495 0.99 816.495 2 817 C1.01 817.495 1.01 817.495 0 818 C0 817.34 0 816.68 0 816 Z M94 816 C96 817 96 817 96 817 Z M47 817 C49 818 49 818 49 818 Z M96 817 C98 818 98 818 98 818 Z M50 821 C50.66 821.66 51.32 822.32 52 823 C51.34 823 50.68 823 50 823 C50 822.34 50 821.68 50 821 Z M142 822 C144 823 144 823 144 823 Z M94 824 C96 825 96 825 96 825 Z M-22 829 C-20 830 -20 830 -20 830 Z M96 833 C98 834 98 834 98 834 Z M-795 838 C-793 839 -793 839 -793 839 Z M142 838 C144 839 144 839 144 839 Z M94 840 C96 841 96 841 96 841 Z M47 841 C49 842 49 842 49 842 Z M142 846 C144 847 144 847 144 847 Z M0 848 C0.99 848.495 0.99 848.495 2 849 C1.01 849.495 1.01 849.495 0 850 C0 849.34 0 848.68 0 848 Z M142 854 C144 855 144 855 144 855 Z M0 856 C0.99 856.495 0.99 856.495 2 857 C1.01 857.495 1.01 857.495 0 858 C0 857.34 0 856.68 0 856 Z M94 856 C96 857 96 857 96 857 Z M96 857 C96.99 857.495 96.99 857.495 98 858 C97.01 858.495 97.01 858.495 96 859 C96 858.34 96 857.68 96 857 Z M142 862 C144 863 144 863 144 863 Z M-863 864 C-862.34 864 -861.68 864 -861 864 C-861.33 864.66 -861.66 865.32 -862 866 C-862.33 865.34 -862.66 864.68 -863 864 Z M142 870 C144 871 144 871 144 871 Z M1 876 C3 877 3 877 3 877 Z M50 878 C52 879 52 879 52 879 Z M142 878 C144 879 144 879 144 879 Z M0 880 C0.99 880.495 0.99 880.495 2 881 C1.01 881.495 1.01 881.495 0 882 C0 881.34 0 880.68 0 880 Z M142 886 C142.99 886.33 143.98 886.66 145 887 C144.01 887 143.02 887 142 887 C142 886.67 142 886.34 142 886 Z M50 894 C50.33 894.66 50.66 895.32 51 896 C50.34 895.67 49.68 895.34 49 895 C49.33 894.67 49.66 894.34 50 894 Z M142 894 C144 895 144 895 144 895 Z M0 896 C0.99 896.495 0.99 896.495 2 897 C1.01 897.495 1.01 897.495 0 898 C0 897.34 0 896.68 0 896 Z M142 902 C144 903 144 903 144 903 Z M142 910 C144 911 144 911 144 911 Z M0 920 C0.99 920.495 0.99 920.495 2 921 C1.01 921.495 1.01 921.495 0 922 C0 921.34 0 920.68 0 920 Z M-471 924 C-469 925 -469 925 -469 925 Z M144 925 C144.33 925.66 144.66 926.32 145 927 C144.01 926.67 143.02 926.34 142 926 C142.66 925.67 143.32 925.34 144 925 Z M142 934 C144 935 144 935 144 935 Z M142 942 C144 943 144 943 144 943 Z M97 944 C97.33 944.66 97.66 945.32 98 946 C97.34 945.67 96.68 945.34 96 945 C96.33 944.67 96.66 944.34 97 944 Z M142 950 C144 951 144 951 144 951 Z M0 952 C0.99 952.495 0.99 952.495 2 953 C1.01 953.495 1.01 953.495 0 954 C0 953.34 0 952.68 0 952 Z M97 952 C97.33 952.66 97.66 953.32 98 954 C97.34 953.67 96.68 953.34 96 953 C96.33 952.67 96.66 952.34 97 952 Z M142 958 C144 959 144 959 144 959 Z M47 960 C47.66 960.66 48.32 961.32 49 962 C48.34 962 47.68 962 47 962 C47 961.34 47 960.68 47 960 Z M97 968 C97.33 968.66 97.66 969.32 98 970 C97.34 969.67 96.68 969.34 96 969 C96.33 968.67 96.66 968.34 97 968 Z M96 974 C96.66 974.66 97.32 975.32 98 976 C97.34 976 96.68 976 96 976 C96 975.34 96 974.68 96 974 Z M142 974 C144 975 144 975 144 975 Z M94 976 C96 977 96 977 96 977 Z M-117 981 C-116 985 -116 985 -116 985 Z M142 982 C142.66 982 143.32 982 144 982 C143.67 982.99 143.34 983.98 143 985 C142.67 984.01 142.34 983.02 142 982 Z M142 990 C144 991 144 991 144 991 Z M0 992 C0.99 992.495 0.99 992.495 2 993 C1.01 993.495 1.01 993.495 0 994 C0 993.34 0 992.68 0 992 Z M48 992 C48.99 992.495 48.99 992.495 50 993 C49.01 993.495 49.01 993.495 48 994 C48 993.34 48 992.68 48 992 Z M142 998 C144 999 144 999 144 999 Z M0 1008 C0.99 1008.495 0.99 1008.495 2 1009 C1.01 1009.495 1.01 1009.495 0 1010 C0 1009.34 0 1008.68 0 1008 Z M47 1009 C49 1010 49 1010 49 1010 Z M-864 1013 C-862 1014 -862 1014 -862 1014 Z M0 1016 C2 1017 2 1017 2 1017 Z M94 1016 C96 1017 96 1017 96 1017 Z " fill="#39A5D7" transform="translate(948,5)"/>
</svg>
